<svg width="24" height="24" viewBox="0 0 24 24" fill="none" xmlns="http://www.w3.org/2000/svg">
<path d="M19 0H5C2.23858 0 0 2.23858 0 5V19C0 21.7614 2.23858 24 5 24H19C21.7614 24 24 21.7614 24 19V5C24 2.23858 21.7614 0 19 0Z" fill="white"/>
<path d="M6.7966 5.19424C6.8344 5.11245 6.9136 5.06066 7 5.06066C7.0867 5.06066 7.1656 5.11245 7.2034 5.19424C7.4956 5.82519 7.9984 6.91213 7.9984 6.91213C7.9984 6.91213 9.1417 7.07761 9.805 7.17392C9.9259 7.19129 10 7.29898 10 7.40982C10 7.46982 9.9784 7.53077 9.9307 7.57908C9.4477 8.06477 8.6161 8.90255 8.6161 8.90255C8.6161 8.90255 8.8192 10.0921 8.9368 10.7821C8.9617 10.928 8.8543 11.0607 8.7142 11.0607C8.6776 11.0607 8.641 11.0515 8.6077 11.0326C8.0173 10.7016 7 10.1322 7 10.1322C7 10.1322 5.9827 10.7016 5.3923 11.0326C5.359 11.0515 5.3221 11.0607 5.2855 11.0607C5.146 11.0607 5.038 10.9277 5.0632 10.7821C5.1811 10.0921 5.3842 8.90255 5.3842 8.90255C5.3842 8.90255 4.5523 8.06477 4.0696 7.57908C4.0216 7.53077 4 7.46982 4 7.41013C4 7.29898 4.0747 7.19098 4.1953 7.17392C4.8586 7.07761 6.0016 6.91213 6.0016 6.91213C6.0016 6.91213 6.5047 5.82519 6.7966 5.19424Z" fill="black"/>
<path d="M14.25 8.81066C14.6642 9.22487 15.3358 9.22487 15.75 8.81066C16.1642 8.39645 16.1642 7.72487 15.75 7.31066C15.3358 6.89645 14.6642 6.89645 14.25 7.31066C13.8358 7.72487 13.8358 8.39645 14.25 8.81066Z" fill="black"/>
<path d="M7.5 18.5607C8.32843 19.3891 9.67157 19.3891 10.5 18.5607C11.3284 17.7322 11.3284 16.3891 10.5 15.5607C9.67157 14.7322 8.32843 14.7322 7.5 15.5607C6.67157 16.3891 6.67157 17.7322 7.5 18.5607Z" fill="black"/>
<path d="M13.5 18.5607C14.3284 19.3891 15.6716 19.3891 16.5 18.5607C17.3284 17.7322 17.3284 16.3891 16.5 15.5607C15.6716 14.7322 14.3284 14.7322 13.5 15.5607C12.6716 16.3891 12.6716 17.7322 13.5 18.5607Z" fill="black"/>
<path d="M18.25 8.81066C18.6642 9.22487 19.3358 9.22487 19.75 8.81066C20.1642 8.39645 20.1642 7.72487 19.75 7.31066C19.3358 6.89645 18.6642 6.89645 18.25 7.31066C17.8358 7.72487 17.8358 8.39645 18.25 8.81066Z" fill="black"/>
<path d="M16.25 6.81066C16.6642 7.22487 17.3358 7.22487 17.75 6.81066C18.1642 6.39645 18.1642 5.72487 17.75 5.31066C17.3358 4.89645 16.6642 4.89645 16.25 5.31066C15.8358 5.72487 15.8358 6.39645 16.25 6.81066Z" fill="black"/>
<path d="M16.25 10.8107C16.6642 11.2249 17.3358 11.2249 17.75 10.8107C18.1642 10.3964 18.1642 9.72487 17.75 9.31066C17.3358 8.89645 16.6642 8.89645 16.25 9.31066C15.8358 9.72487 15.8358 10.3964 16.25 10.8107Z" fill="black"/>
<path d="M15.0767 17.3418V17.0898L15.9863 17.0884V17.8853C15.8467 17.9966 15.7026 18.0806 15.5542 18.1372C15.4058 18.1929 15.2534 18.2207 15.0972 18.2207C14.8862 18.2207 14.6943 18.1758 14.5215 18.0859C14.3496 17.9951 14.2197 17.8643 14.1318 17.6934C14.0439 17.5225 14 17.3315 14 17.1206C14 16.9116 14.0435 16.7168 14.1304 16.5361C14.2183 16.3545 14.3442 16.2197 14.5083 16.1318C14.6724 16.0439 14.8613 16 15.0752 16C15.2305 16 15.3706 16.0254 15.4956 16.0762C15.6216 16.126 15.7202 16.1958 15.7915 16.2856C15.8628 16.3755 15.917 16.4927 15.9541 16.6372L15.6978 16.7075C15.6655 16.5981 15.6255 16.5122 15.5776 16.4497C15.5298 16.3872 15.4614 16.3374 15.3726 16.3003C15.2837 16.2622 15.1851 16.2432 15.0767 16.2432C14.9468 16.2432 14.8345 16.2632 14.7397 16.3032C14.645 16.3423 14.5684 16.394 14.5098 16.4585C14.4521 16.5229 14.4072 16.5938 14.375 16.6709C14.3203 16.8037 14.293 16.9478 14.293 17.103C14.293 17.2944 14.3257 17.4546 14.3911 17.5835C14.4575 17.7124 14.5537 17.8081 14.6797 17.8706C14.8057 17.9331 14.9395 17.9644 15.0811 17.9644C15.2041 17.9644 15.3242 17.9409 15.4414 17.894C15.5586 17.8462 15.6475 17.7954 15.708 17.7417V17.3418H15.0767Z" fill="white"/>
<path d="M8.26591 18L7.75 16H8.01393L8.30968 17.3111C8.34151 17.4484 8.36892 17.5848 8.39191 17.7203C8.44142 17.5066 8.4706 17.3834 8.47944 17.3506L8.84947 16H9.15981L9.43833 17.0123C9.50818 17.2633 9.55858 17.4993 9.58952 17.7203C9.61428 17.5939 9.64655 17.4488 9.68634 17.2851L9.99138 16H10.25L9.71684 18H9.46883L9.05902 16.4761C9.02454 16.3488 9.0042 16.2706 8.99801 16.2415C8.97767 16.3333 8.95866 16.4116 8.94098 16.4761L8.52851 18H8.26591Z" fill="white"/>
</svg>
